HIERARCHY
ROOT Hips
{
	OFFSET 0.000000 0.000000 0.000000
	CHANNELS 6 Xposition Yposition Zposition Xrotation Yrotation Zrotation
	JOINT LeftUpLeg_virtual
	{
		OFFSET 0.000000 0.000000 0.000000
		CHANNELS 3 Xrotation Yrotation Zrotation
		JOINT LeftUpLeg
		{
			OFFSET 15.427100 -6.655098 0.678600
			CHANNELS 3 Xrotation Yrotation Zrotation
			JOINT LeftLeg
			{
				OFFSET 4.081073 -39.591068 13.024000
				CHANNELS 3 Xrotation Yrotation Zrotation
				JOINT LeftFoot
				{
					OFFSET -4.081074 -37.707932 -15.979700
					CHANNELS 3 Xrotation Yrotation Zrotation
					JOINT LeftToeBase
					{
						OFFSET 5.346399 -15.068900 20.645000
						CHANNELS 3 Xrotation Yrotation Zrotation
						JOINT LeftToe_End
						{
							OFFSET 2.754700 0.931300 11.300900
							CHANNELS 3 Xrotation Yrotation Zrotation
							End Site
							{
								OFFSET 0 0 0
							}
						}
					}
				}
			}
		}
	}
	JOINT RightUpLeg_virtual
	{
		OFFSET 0.000000 0.000000 0.000000
		CHANNELS 3 Xrotation Yrotation Zrotation
		JOINT RightUpLeg
		{
			OFFSET -15.569500 -6.655098 0.678600
			CHANNELS 3 Xrotation Yrotation Zrotation
			JOINT RightLeg
			{
				OFFSET -4.081825 -39.591045 13.023800
				CHANNELS 3 Xrotation Yrotation Zrotation
				JOINT RightFoot
				{
					OFFSET 4.081824 -37.707954 -15.979600
					CHANNELS 3 Xrotation Yrotation Zrotation
					JOINT RightToeBase
					{
						OFFSET -5.346400 -15.068900 20.645000
						CHANNELS 3 Xrotation Yrotation Zrotation
						JOINT RightToe_End
						{
							OFFSET -2.754700 0.931300 11.300900
							CHANNELS 3 Xrotation Yrotation Zrotation
							End Site
							{
								OFFSET 0 0 0
							}
						}
					}
				}
			}
		}
	}
	JOINT Spine_virtual
	{
		OFFSET 0.000000 0.000000 0.000000
		CHANNELS 3 Xrotation Yrotation Zrotation
		JOINT Spine
		{
			OFFSET -0.279200 12.230698 -2.892100
			CHANNELS 3 Xrotation Yrotation Zrotation
			JOINT Spine1
			{
				OFFSET -0.232667 10.192268 -1.242267
				CHANNELS 3 Xrotation Yrotation Zrotation
				JOINT Spine1_split
				{
					OFFSET -0.232667 10.192268 -1.242267
					CHANNELS 3 Xrotation Yrotation Zrotation
					JOINT Spine2
					{
						OFFSET -0.232667 10.192268 -1.242267
						CHANNELS 3 Xrotation Yrotation Zrotation
						JOINT Neck_virtual
						{
							OFFSET 0.000000 0.000000 0.000000
							CHANNELS 3 Xrotation Yrotation Zrotation
							JOINT Neck
							{
								OFFSET -0.418800 17.814194 8.416900
								CHANNELS 3 Xrotation Yrotation Zrotation
								JOINT Head
								{
									OFFSET 0.000000 7.031097 3.806800
									CHANNELS 3 Xrotation Yrotation Zrotation
									JOINT HeadTop_End
									{
										OFFSET 0.000000 24.646606 12.978600
										CHANNELS 3 Xrotation Yrotation Zrotation
										End Site
										{
											OFFSET 0 0 0
										}
									}
								}
							}
						}
						JOINT LeftShoulder_virtual
						{
							OFFSET 0.000000 0.000000 0.000000
							CHANNELS 3 Xrotation Yrotation Zrotation
							JOINT LeftShoulder
							{
								OFFSET 8.476499 7.247704 -3.868750
								CHANNELS 3 Xrotation Yrotation Zrotation
								JOINT LeftShoulder_split
								{
									OFFSET 8.476499 7.247704 -3.868750
									CHANNELS 3 Xrotation Yrotation Zrotation
									JOINT LeftArm
									{
										OFFSET 9.308998 -2.777710 0.208600
										CHANNELS 3 Xrotation Yrotation Zrotation
										JOINT LeftForeArm
										{
											OFFSET 29.972298 0.000000 0.000000
											CHANNELS 3 Xrotation Yrotation Zrotation
											JOINT LeftHand
											{
												OFFSET 26.026505 0.000000 0.000000
												CHANNELS 3 Xrotation Yrotation Zrotation
												End Site
												{
													OFFSET 0 0 0
												}
											}
										}
									}
								}
							}
						}
						JOINT RightShoulder_virtual
						{
							OFFSET 0.000000 0.000000 0.000000
							CHANNELS 3 Xrotation Yrotation Zrotation
							JOINT RightShoulder
							{
								OFFSET -7.570500 7.247704 -3.868750
								CHANNELS 3 Xrotation Yrotation Zrotation
								JOINT RightShoulder_split
								{
									OFFSET -7.570500 7.247704 -3.868750
									CHANNELS 3 Xrotation Yrotation Zrotation
									JOINT RightArm
									{
										OFFSET -9.308998 -2.777710 0.208500
										CHANNELS 3 Xrotation Yrotation Zrotation
										JOINT RightForeArm
										{
											OFFSET -29.972300 0.000000 0.000000
											CHANNELS 3 Xrotation Yrotation Zrotation
											JOINT RightHand
											{
												OFFSET -26.026505 0.000000 0.000000
												CHANNELS 3 Xrotation Yrotation Zrotation
												End Site
												{
													OFFSET 0 0 0
												}
											}
										}
									}
								}
							}
						}
					}
				}
			}
		}
	}
}
MOTION
Frames: 9
Frame Time: 0.03333333
0.327739 110.138763 1.772930 0.000000 0.000000 0.000000 -83.528398 -7.931129 -2.852873 2.836464 21.748217 15.802232 -4.330450 5.474508 3.891399 22.149706 28.466133 -25.961479 -5.944909 -0.299229 1.720692 0.000000 0.000000 0.000000 -85.581820 -5.129228 -1.539818 1.618943 -21.037070 -11.885010 -0.980742 -3.342495 -8.096192 30.487273 -31.944703 32.453825 -14.444931 0.486366 -0.837753 0.000000 0.000000 0.000000 -83.854547 -7.963167 -4.056001 -1.296738 -2.117072 0.571849 -0.442471 -2.733268 0.725583 2.089376 3.249835 -0.538659 0.000000 0.000000 0.000000 -2.048837 -2.985505 0.464063 -13.598144 1.759537 0.171863 10.075406 -2.409883 3.786341 0.000000 0.000000 0.000000 -1.214879 -3.002590 1.160439 0.346685 3.374935 -2.753573 -2.325898 2.824729 -5.827598 41.908292 -32.772037 -47.418885 167.057357 -87.496806 167.357161 0.000000 0.000000 0.000000 -1.339913 -2.778962 0.758138 1.052170 -3.369975 13.230372 0.660637 2.953284 -0.240507 31.755069 34.548804 39.304443 173.337893 76.328020 -172.921115 0.000000 0.000000 0.000000 
0.375058 110.230537 1.845078 0.000000 0.000000 0.000000 -83.571053 -7.972391 -2.884003 2.729857 21.500218 15.819785 -4.124149 5.417658 3.924148 22.340492 28.435374 -25.944328 -5.723082 -0.266855 1.620888 0.000000 0.000000 0.000000 -85.594503 -5.039532 -1.473658 1.818594 -20.902254 -11.666352 -0.996538 -3.387211 -8.186187 30.173675 -32.099184 32.350945 -14.559853 0.522083 -0.907486 0.000000 0.000000 0.000000 -83.802671 -7.786417 -3.877505 -1.242918 -2.122317 0.715287 -0.314215 -2.700447 0.764180 1.923326 3.045118 -0.750260 0.000000 0.000000 0.000000 -2.009215 -2.967797 0.495521 -13.798848 2.027514 0.093748 10.241315 -2.087653 3.271365 0.000000 0.000000 0.000000 -0.989838 -2.973338 1.272025 0.178811 3.322263 -3.366917 -2.168637 3.548078 -5.055349 41.910249 -32.691293 -47.026071 164.424988 -88.077147 164.490667 0.000000 0.000000 0.000000 -1.069888 -2.706198 0.726725 1.119093 -3.192412 13.014693 0.847979 2.623563 -0.036335 29.697533 34.793366 39.488817 173.704292 75.206598 -173.345379 0.000000 0.000000 0.000000 
0.378366 110.386787 1.940327 0.000000 0.000000 0.000000 -83.702944 -7.944042 -2.816263 2.505528 21.259867 15.885867 -3.851577 5.365987 3.928411 22.494828 28.298498 -26.007574 -5.431461 -0.222177 1.464456 0.000000 0.000000 0.000000 -85.640580 -4.836062 -1.309409 1.994738 -20.447419 -11.398933 -0.871585 -3.447909 -8.341823 29.711876 -32.346823 32.031514 -14.608267 0.582100 -1.002751 0.000000 0.000000 0.000000 -83.827957 -7.665520 -3.737248 -1.054891 -2.144321 0.931199 0.079286 -2.669699 0.784303 1.713375 2.526644 -0.893948 0.000000 0.000000 0.000000 -1.689776 -2.957630 0.503041 -13.847797 2.279336 -0.301515 10.253723 -1.359115 2.189683 0.000000 0.000000 0.000000 -0.422155 -2.992554 1.320927 0.024439 3.354808 -4.308911 -2.117140 4.076619 -4.190914 40.445949 -32.206760 -47.356738 159.752920 -89.344489 159.687200 0.000000 0.000000 0.000000 -0.607182 -2.678379 0.655832 1.085044 -2.650674 12.687776 0.954378 2.348776 0.729485 25.840921 35.461482 39.752896 175.076436 74.105988 -174.976934 0.000000 0.000000 0.000000 
0.347847 110.552704 2.065166 0.000000 0.000000 0.000000 -83.887291 -7.857874 -2.656071 2.232612 21.103179 15.968958 -3.534583 5.295373 3.911756 22.518847 28.084630 -26.119810 -5.319774 -0.183207 1.343194 0.000000 0.000000 0.000000 -85.734536 -4.615006 -1.064631 1.988358 -19.817447 -11.207750 -0.608633 -3.454295 -8.485956 29.280208 -32.524452 31.649655 -14.569246 0.651480 -1.093477 0.000000 0.000000 0.000000 -83.980065 -7.653335 -3.660207 -0.740316 -2.128677 1.131171 0.743183 -2.530213 0.768641 1.451319 1.815881 -0.820250 0.000000 0.000000 0.000000 -1.086096 -2.839082 0.452356 -13.668042 2.380965 -0.898006 10.095348 -0.357508 0.709607 0.000000 0.000000 0.000000 0.462022 -2.928905 1.306440 -0.087218 3.454484 -5.361797 -2.014901 4.058893 -3.253950 37.968410 -31.547735 -48.015301 -20.599427 -89.333827 -20.709547 0.000000 0.000000 0.000000 0.027708 -2.581267 0.540233 0.938308 -1.775004 12.306888 0.903894 2.307463 1.629249 20.598886 36.398187 40.254775 176.745447 73.153949 -177.016428 0.000000 0.000000 0.000000 
0.304868 110.698044 2.215397 0.000000 0.000000 0.000000 -84.090345 -7.762793 -2.426815 1.964764 21.025354 16.055698 -3.244286 5.213313 3.893444 22.309476 27.884903 -26.165707 -5.387424 -0.168749 1.303634 0.000000 0.000000 0.000000 -85.897695 -4.461394 -0.797563 1.780215 -19.223528 -11.122680 -0.304593 -3.382282 -8.588246 28.990909 -32.548952 31.313754 -14.427900 0.711790 -1.151000 0.000000 0.000000 0.000000 -84.286529 -7.773367 -3.650666 -0.305424 -1.995881 1.214018 1.706141 -2.162613 0.720082 1.256415 1.202689 -0.570178 0.000000 0.000000 0.000000 -0.208078 -2.493692 0.343667 -13.181988 2.274388 -1.495065 9.818973 0.615280 -0.951493 0.000000 0.000000 0.000000 1.595994 -2.639908 1.224133 -0.138740 3.534254 -6.310935 -1.620786 3.472094 -2.492680 35.177387 -30.973665 -48.516917 -26.297594 -88.409962 -26.406293 0.000000 0.000000 0.000000 0.845397 -2.297425 0.374092 0.700611 -0.728010 11.979350 0.573021 2.284943 2.236292 14.327454 37.194048 41.239176 178.327415 72.001559 -179.003071 0.000000 0.000000 0.000000 
0.225776 110.810669 2.410133 0.000000 0.000000 0.000000 -84.290176 -7.691239 -2.147761 1.733594 20.967936 16.135514 -3.034121 5.129548 3.887939 21.721277 27.831938 -26.010914 -5.418238 -0.186190 1.319921 0.000000 0.000000 0.000000 -86.027749 -4.394239 -0.511627 1.491930 -18.826201 -11.104873 -0.089389 -3.245378 -8.646430 28.748717 -32.457762 31.000962 -14.177136 0.757097 -1.166321 0.000000 0.000000 0.000000 -84.656684 -7.950146 -3.686591 0.212727 -1.664913 1.139219 2.972354 -1.496626 0.644518 1.030819 0.809919 -0.344035 0.000000 0.000000 0.000000 0.959018 -1.855948 0.193377 -12.286543 1.880195 -2.005341 9.515913 1.281207 -2.582466 0.000000 0.000000 0.000000 2.936049 -2.044442 1.092185 -0.126589 3.533942 -6.941371 -0.974956 2.558355 -1.901356 32.603932 -30.887598 -48.364945 -34.073013 -88.162081 -34.154375 0.000000 0.000000 0.000000 1.893141 -1.725159 0.180955 0.404260 0.383429 11.770993 0.186481 2.242108 2.586998 7.409766 37.458731 42.933452 179.330756 70.213402 179.625574 0.000000 0.000000 0.000000 
0.117053 110.907616 2.543282 0.000000 0.000000 0.000000 -84.426172 -7.625760 -1.848326 1.595505 20.857215 16.198309 -2.977199 5.023141 3.911085 20.737276 27.969891 -25.652534 -5.308270 -0.230799 1.367071 0.000000 0.000000 0.000000 -86.111583 -4.382582 -0.220615 1.268798 -18.694218 -11.108761 0.004063 -3.094838 -8.671828 28.426295 -32.336527 30.664640 -13.820524 0.782359 -1.135080 0.000000 0.000000 0.000000 -85.029250 -8.111277 -3.743419 0.792705 -1.136750 0.897223 4.538336 -0.551902 0.546640 0.947445 0.602756 -0.075034 0.000000 0.000000 0.000000 2.422985 -0.940360 0.016285 -11.012852 1.274955 -2.359796 9.325922 1.475416 -4.035558 0.000000 0.000000 0.000000 4.441453 -1.164972 0.913603 -0.054711 3.382099 -7.140754 -0.323822 1.638689 -1.803839 30.613905 -31.577638 -47.190091 -44.926522 -88.404067 -44.945199 0.000000 0.000000 0.000000 3.220820 -0.865214 -0.006027 0.097096 1.424287 11.735307 -0.113350 2.278601 2.769160 0.111243 36.805451 45.329093 179.698220 67.537382 179.015105 0.000000 0.000000 0.000000 
-0.000548 111.024368 2.629646 0.000000 0.000000 0.000000 -84.496441 -7.566912 -1.591750 1.592036 20.616847 16.275815 -3.071807 4.851849 3.947745 19.499447 28.258617 -25.225110 -5.143079 -0.288986 1.430245 0.000000 0.000000 0.000000 -86.159005 -4.370688 0.031786 1.189256 -18.835881 -11.113848 0.005035 -2.964568 -8.654895 27.975377 -32.203399 30.318503 -13.341652 0.784383 -1.071000 0.000000 0.000000 0.000000 -85.297697 -8.257653 -3.839199 1.377028 -0.451964 0.552591 6.402801 0.563994 0.436646 0.992662 0.519051 0.130597 0.000000 0.000000 0.000000 4.192467 0.171215 -0.158117 -9.450133 0.577023 -2.579111 9.387848 1.251203 -5.255758 0.000000 0.000000 0.000000 6.138219 -0.087256 0.706073 0.073424 3.117601 -6.916964 0.289743 0.918286 -2.227116 29.262416 -33.067541 -44.952637 -51.414679 -88.710319 -51.321625 0.000000 0.000000 0.000000 4.861580 0.205284 -0.163598 -0.159965 2.328741 11.922486 -0.258730 2.316141 2.905631 -6.956990 35.081552 48.140386 179.618143 64.075623 179.020556 0.000000 0.000000 0.000000 
-0.087542 111.179596 2.652885 0.000000 0.000000 0.000000 -84.486961 -7.541071 -1.461501 1.622486 20.253997 16.428960 -3.192603 4.578031 3.987764 18.266784 28.588150 -24.871862 -5.055712 -0.348792 1.500452 0.000000 0.000000 0.000000 -86.138268 -4.300572 0.210742 1.230603 -19.163868 -11.162711 -0.055429 -2.811261 -8.567948 27.394231 -31.987832 30.080659 -12.843080 0.765862 -1.010547 0.000000 0.000000 0.000000 -85.367140 -8.350105 -3.965163 1.910290 0.280869 0.225466 8.496934 1.710172 0.309828 1.109633 0.528215 0.220917 0.000000 0.000000 0.000000 6.204758 1.309039 -0.327766 -7.721799 -0.094323 -2.739908 9.895249 0.749998 -6.243043 0.000000 0.000000 0.000000 8.024189 1.022124 0.475997 0.252831 2.873859 -6.365212 1.073829 0.323562 -2.734868 28.177433 -35.234087 -41.949523 -43.414305 -88.846308 -43.151639 0.000000 0.000000 0.000000 6.796533 1.330597 -0.288010 -0.336779 3.035923 12.219464 -0.538480 2.349052 2.964510 -12.992178 32.713874 50.756273 179.297561 60.331799 179.467783 0.000000 0.000000 0.000000 
